<?xml version="1.0" standalone="no"?>
<!DOCTYPE svg PUBLIC "-//W3C//DTD SVG 1.1//EN" "http://www.w3.org/Graphics/SVG/1.1/DTD/svg11.dtd" >
<svg xmlns="http://www.w3.org/2000/svg">
<metadata></metadata>
<defs>
<font id="maven_proregular" horiz-adv-x="1529" >
<font-face units-per-em="2048" ascent="1638" descent="-410" />
<missing-glyph horiz-adv-x="692" />
<glyph horiz-adv-x="0" />
<glyph unicode="&#xd;" horiz-adv-x="2048" />
<glyph horiz-adv-x="0" />
<glyph horiz-adv-x="0" />
<glyph unicode=" "  horiz-adv-x="692" />
<glyph unicode="&#x09;" horiz-adv-x="692" />
<glyph unicode="&#xa0;" horiz-adv-x="692" />
<glyph unicode="!" horiz-adv-x="761" d="M303 0v164h164v-164h-164zM311 1366h148l-15 -1022h-118z" />
<glyph unicode="&#x22;" horiz-adv-x="780" d="M166 1384h170l-35 -411h-98zM440 1384h170l-37 -411h-98z" />
<glyph unicode="#" horiz-adv-x="1210" d="M145 258v123h189l55 326h-186v122h209l41 242h125l-41 -242h270l43 242h125l-43 -242h147v-122h-168l-57 -326h166v-123h-186l-37 -219h-125l37 219h-271l-39 -219h-125l39 219h-168zM459 381h270l57 326h-272z" />
<glyph unicode="$" horiz-adv-x="1181" d="M154 1004q0 67 21.5 127t65.5 113t121.5 89.5t180.5 46.5v209h110v-205q168 -8 314 -81v-152q-151 84 -314 86v-469q69 -21 118.5 -41t107 -55t93 -76.5t59.5 -105t24 -142.5q0 -155 -105.5 -249t-296.5 -111v-209h-110v205q-206 5 -377 96v160q159 -104 377 -109v520 q-52 15 -83 25.5t-77.5 28.5t-74.5 35.5t-61 44.5t-50.5 57t-30 71.5t-12.5 90.5zM301 1004q0 -77 61.5 -121t180.5 -80v428q-119 -17 -180.5 -74.5t-61.5 -152.5zM653 135q254 31 254 213q0 56 -19 100t-57 75t-78.5 51.5t-99.5 41.5v-481z" />
<glyph unicode="%" horiz-adv-x="1777" d="M145 983q0 90 18.5 158.5t47 109t69 66t79.5 34.5t83 9q56 0 103.5 -16t93 -55t72 -117t26.5 -189q0 -90 -18.5 -159t-47 -110t-68.5 -66.5t-78.5 -34.5t-82.5 -9t-83 9t-79.5 34.5t-69 66.5t-47 110t-18.5 159zM258 983q0 -69 10.5 -120t27 -79.5t42 -45.5t49.5 -22 t55 -5q30 0 53.5 5t49 22t42 45.5t27.5 79.5t11 120q0 58 -7 103t-20.5 74t-30 48t-38.5 28.5t-42 13t-45 3.5q-40 0 -68.5 -9t-57 -35t-43.5 -83t-15 -143zM395 0l858 1366h131l-858 -1366h-131zM1042 385q0 90 18.5 159t47 110t69 66.5t79.5 34.5t83 9t82.5 -9t78.5 -34.5 t68.5 -66.5t47 -110t18.5 -159t-18.5 -159t-47 -110t-68.5 -66.5t-78.5 -34.5t-82.5 -9t-83 9t-79.5 34.5t-69 66.5t-47 110t-18.5 159zM1155 385q0 -69 10.5 -120t27 -79.5t42 -45.5t49.5 -22t55 -5q30 0 53.5 5t49 22t42 45.5t27.5 79.5t11 120t-11 120t-27.5 79.5 t-42 45.5t-49 22t-53.5 5q-31 0 -55 -5t-49.5 -22t-42 -45.5t-27 -79.5t-10.5 -120z" />
<glyph unicode="&#x26;" horiz-adv-x="1310" d="M111 377q0 56 10 102.5t37 101t84.5 107t144.5 100.5q-135 169 -135 283q0 127 91 218t218 91q130 0 220.5 -87.5t90.5 -213.5q0 -110 -58.5 -184.5t-192.5 -151.5l297 -354q56 100 83 205h134q-31 -175 -121 -322l227 -272h-192l-125 152q-161 -168 -385 -168 q-89 0 -163.5 26.5t-122 68t-81 94.5t-47.5 104.5t-14 99.5zM256 381q0 -24 7 -53.5t27 -66t50.5 -65.5t83.5 -49t121 -20q172 0 291 129l-357 428q-64 -34 -108.5 -71t-66.5 -65.5t-33.5 -64t-13 -54t-1.5 -48.5zM395 1069q0 -35 38.5 -94.5t90.5 -118.5 q132 70 171.5 115.5t39.5 105.5q0 67 -49 111.5t-121 44.5q-70 0 -120 -48t-50 -116z" />
<glyph unicode="'" horiz-adv-x="509" d="M166 1384h170l-35 -411h-98z" />
<glyph unicode="(" horiz-adv-x="706" d="M190 625q0 139 23.5 277t62 250t72 189t70.5 142h155q-21 -35 -44 -79.5t-59.5 -133t-63.5 -180t-47.5 -217t-20.5 -248.5q0 -122 20.5 -247.5t48 -217.5t63.5 -179.5t59.5 -133t43.5 -78.5h-155q-37 65 -70.5 142t-72 188.5t-62 249.5t-23.5 276z" />
<glyph unicode=")" horiz-adv-x="706" d="M133 -231q22 36 44.5 79.5t60 132.5t65 180.5t48 217t20.5 248.5q0 122 -20.5 247.5t-48.5 217.5t-64.5 180t-60 132.5t-44.5 78.5h158q36 -65 70 -142t72.5 -188.5t61.5 -249.5t23 -276q0 -139 -23 -277t-61.5 -250t-72.5 -189t-70 -142h-158z" />
<glyph unicode="*" horiz-adv-x="841" d="M172 1112l178 78l-178 80l55 94l156 -111l-21 187h111l-16 -187l153 111l56 -94l-177 -80l177 -78l-56 -98l-153 112l16 -184h-111l21 184l-156 -112z" />
<glyph unicode="+" horiz-adv-x="1128" d="M199 551v123h303v303h123v-303h301v-123h-301v-301h-123v301h-303z" />
<glyph unicode="," horiz-adv-x="641" d="M152 -229l151 401h168l-172 -401h-147z" />
<glyph unicode="-" horiz-adv-x="950" d="M162 539v143h624v-143h-624z" />
<glyph unicode="." horiz-adv-x="671" d="M260 0v164h164v-164h-164z" />
<glyph unicode="/" horiz-adv-x="827" d="M-29 -201l752 1749h135l-754 -1749h-133z" />
<glyph unicode="0" horiz-adv-x="1345" d="M133 678q0 348 136 524t403 176q538 0 538 -700q0 -701 -538 -701q-267 0 -403 176.5t-136 524.5zM281 678q0 -105 12.5 -189.5t33 -142.5t51.5 -101t63.5 -68t74 -39.5t77.5 -19.5t79 -5t79 5t77.5 19.5t74 39.5t63.5 68t51.5 101t33 142.5t12.5 189.5q0 144 -24 250 t-60.5 165.5t-91 94.5t-104 45t-111.5 10t-111.5 -10t-104 -45t-91 -94.5t-60.5 -165.5t-24 -250z" />
<glyph unicode="1" horiz-adv-x="923" d="M211 1032v174l252 160h168v-1366h-148v1212z" />
<glyph unicode="2" horiz-adv-x="1189" d="M158 0v129q80 59 162.5 128t181.5 166t174 190t125.5 197t50.5 189q0 36 -7.5 67t-29.5 63.5t-56.5 55.5t-93 37.5t-135.5 14.5q-188 0 -358 -119v162q173 104 371 104q97 0 176 -22.5t130 -59.5t85.5 -87.5t49.5 -104t15 -111.5q0 -89 -39 -188.5t-99 -187t-143 -179 t-158.5 -161t-158.5 -136.5h619v-147h-862z" />
<glyph unicode="3" horiz-adv-x="1193" d="M166 70v151q161 -90 346 -90q182 0 278.5 67.5t96.5 194.5t-98.5 194.5t-284.5 67.5h-150v142h156q149 0 228 56.5t79 162.5q0 107 -83 164t-240 57q-151 0 -295 -72v150q145 69 311 69q121 0 212 -32t142.5 -86t76 -117t24.5 -133q0 -42 -10 -80t-25.5 -65t-34.5 -50 t-37.5 -37.5t-34 -25t-25.5 -14.5l-10 -5q5 -2 14 -6t34.5 -19t48.5 -33t51.5 -48.5t49 -64t34.5 -81t14 -98.5q0 -78 -27.5 -147t-84.5 -128.5t-158 -94.5t-234 -35q-196 0 -364 86z" />
<glyph unicode="4" horiz-adv-x="1210" d="M78 410v157l645 799h166v-819h194v-137h-194v-410h-148v410h-663zM242 547h499v608z" />
<glyph unicode="5" horiz-adv-x="1202" d="M178 735l70 631h702v-145h-575l-39 -406q126 37 266 37q65 0 122 -10.5t116 -39.5t101 -76t68.5 -126t26.5 -182t-26.5 -182t-68.5 -126t-101 -76t-116 -39.5t-122 -10.5q-234 0 -391 84v153q148 -94 381 -94q58 0 104.5 10t77.5 25.5t53.5 40t34.5 48t19 55.5t8.5 56 t1.5 56q0 74 -18 128t-45 84t-69 47.5t-79.5 22.5t-87.5 5q-96 0 -176.5 -16t-113.5 -32l-32 -16z" />
<glyph unicode="6" horiz-adv-x="1193" d="M133 625q0 141 25.5 257.5t65 193.5t96.5 135.5t112.5 90.5t119.5 51.5t110.5 25t93.5 5.5q109 0 198 -26v-137q-102 24 -182 24q-31 0 -61.5 -2.5t-77 -13.5t-86.5 -29.5t-84.5 -53.5t-78 -82t-59.5 -119t-36 -161q131 90 309 90q215 0 340 -116t125 -314 q0 -67 -15 -130t-50.5 -123.5t-87.5 -106t-132.5 -73t-179.5 -27.5q-465 0 -465 641zM281 621q1 -81 9.5 -148.5t21 -115.5t33 -86.5t39 -62.5t45.5 -41t45.5 -25.5t46.5 -13t41.5 -5t35.5 -0.5q84 0 146 27t93.5 64t50.5 86.5t23 82t4 63.5q0 140 -82 215.5t-235 75.5 q-83 0 -155 -23.5t-104.5 -45.5t-57.5 -47z" />
<glyph unicode="7" horiz-adv-x="1175" d="M143 1219v147h932v-137l-592 -1229h-164l596 1219h-772z" />
<glyph unicode="8" horiz-adv-x="1191" d="M125 406q0 51 13 97.5t33.5 79t45.5 59.5t50.5 44t46 29t33.5 17l13 5q-7 3 -19.5 9.5t-44.5 31.5t-56 55.5t-44 83.5t-20 113q0 68 23.5 128.5t71 112.5t132 82.5t195.5 30.5q112 0 196.5 -30.5t132 -82.5t70.5 -112.5t23 -128.5q0 -62 -18.5 -114.5t-44.5 -83.5 t-52 -53.5t-45 -30.5l-18 -9q9 -3 24.5 -10.5t55 -35t69.5 -62t55 -95t25 -130.5q0 -77 -25.5 -148.5t-78.5 -134.5t-148.5 -101t-220.5 -38q-101 0 -182.5 25.5t-134.5 67t-89 97t-51.5 113.5t-15.5 119zM272 406q0 -27 4.5 -55.5t24 -72t52 -75.5t96.5 -56t149 -24 q86 0 150 24t96.5 56t51.5 75.5t23.5 72t4.5 55.5q0 123 -84 188t-242 65q-157 0 -241.5 -65t-84.5 -188zM324 1030q0 -110 72.5 -172.5t201.5 -62.5t201.5 62.5t72.5 172.5q0 62 -24.5 105.5t-67 65t-86.5 30t-96 8.5t-96 -8.5t-86.5 -30t-67 -65t-24.5 -105.5z" />
<glyph unicode="9" horiz-adv-x="1202" d="M119 924q0 67 15 130t50.5 123.5t87.5 106t132.5 73t179.5 27.5q465 0 465 -643q0 -141 -25 -257t-65 -192.5t-97 -135t-112.5 -90.5t-119.5 -51.5t-110.5 -25t-93.5 -5.5q-105 0 -199 24v139q84 -24 183 -24q31 0 61.5 2.5t77 13.5t86.5 29.5t84.5 53.5t77.5 82t59 119 t35 161q-119 -90 -307 -90q-215 0 -340 115.5t-125 314.5zM266 922q0 -140 82.5 -215.5t235.5 -75.5q64 0 120 12.5t95 32.5t62.5 37.5t39.5 34.5q-1 81 -9.5 148.5t-21 115.5t-33 86t-39 62t-45.5 41.5t-45.5 25.5t-46.5 12.5t-41 5t-36 0.5q-61 0 -110.5 -14t-81.5 -36 t-56.5 -53.5t-37.5 -60.5t-20.5 -62t-9.5 -54.5t-2 -42.5z" />
<glyph unicode=":" horiz-adv-x="800" d="M324 98v164h163v-164h-163zM324 754v164h163v-164h-163z" />
<glyph unicode=";" horiz-adv-x="854" d="M199 -229l151 401h168l-172 -401h-147zM352 754v164h164v-164h-164z" />
<glyph unicode="&#x3c;" horiz-adv-x="1351" d="M246 481v140l844 383v-164l-672 -289l672 -291v-162z" />
<glyph unicode="=" horiz-adv-x="1306" d="M260 381v143h789v-143h-789zM260 698v142h789v-142h-789z" />
<glyph unicode="&#x3e;" horiz-adv-x="1329" d="M270 98v162l670 291l-670 289v164l842 -383v-140z" />
<glyph unicode="?" horiz-adv-x="993" d="M164 1145v160q5 3 13.5 8.5t37 18.5t60 23t79 18.5t95.5 8.5q47 0 93 -7t105 -31t102.5 -63t74 -110.5t30.5 -166.5q0 -60 -17 -108.5t-44 -80.5t-59.5 -60.5t-65.5 -57.5t-60 -63t-44 -85t-17 -115v-90h-148v100q0 77 17 138.5t44 101.5t60 72.5t66 58.5t60 52t44 60.5 t17 76.5q0 113 -68 172t-201 59q-88 0 -158.5 -28t-115.5 -62zM391 0v164h164v-164h-164z" />
<glyph unicode="@" horiz-adv-x="1869" d="M170 371q0 148 51 284t138.5 239.5t199.5 181t238 117.5t250 40q83 0 171 -22t179.5 -73.5t162.5 -125.5t116.5 -189t45.5 -254q0 -220 -91 -361.5t-242 -141.5q-137 0 -191 100q-96 -100 -295 -100q-144 0 -225.5 62t-81.5 171q0 38 8.5 74t37.5 78t75 73t129.5 51.5 t193.5 20.5q74 0 152 -10q2 14 2 43q0 28 -3 47.5t-14.5 43t-32 37.5t-58.5 24t-91 10q-146 0 -256 -43l17 118q121 41 239 41q155 0 236.5 -71t81.5 -207q0 -46 -6 -103.5t-12.5 -101.5t-12 -90.5t-3.5 -80t12.5 -61t37 -41.5t68.5 -14q41 0 83 27t79.5 77t61.5 134.5 t24 187.5q0 117 -36.5 217t-96.5 167.5t-138.5 115.5t-161.5 70t-165 22q-151 0 -295.5 -61t-255.5 -164.5t-178.5 -250.5t-67.5 -308q0 -112 27 -204.5t69.5 -153.5t101 -107.5t114 -71.5t116.5 -40.5t101.5 -20t74.5 -4.5q256 0 430 100l-18 -92q-174 -82 -428 -82 q-71 0 -144.5 16t-149.5 49t-142.5 88.5t-118.5 127.5t-82.5 174t-30.5 221zM715 299q0 -115 188 -115q40 0 73 5t57.5 12t44.5 21t33 25.5t23.5 31.5t16 34.5t10.5 38.5t6.5 38t4 40.5t4.5 38.5q-55 8 -136 8q-325 0 -325 -178z" />
<glyph unicode="A" horiz-adv-x="1325" d="M43 0l545 1366h147l543 -1366h-158l-164 426h-589l-164 -426h-160zM422 567h479l-239 625z" />
<glyph unicode="B" horiz-adv-x="1271" d="M178 0v1366h453q454 0 454 -367q0 -56 -15 -104.5t-36.5 -78t-42.5 -51t-36 -29.5l-15 -9q9 -3 24.5 -9t54.5 -32.5t69 -61t54.5 -98t24.5 -139.5q0 -198 -128.5 -292.5t-366.5 -94.5h-494zM326 137h358q58 0 103 5.5t90.5 22.5t75.5 44.5t48.5 74.5t18.5 111 q0 63 -21 109t-52.5 70.5t-80 39t-90.5 18t-98 3.5h-352v-498zM326 774h338q46 0 80.5 3.5t73 16.5t63 35.5t41 63t16.5 96.5q0 132 -73 184t-220 52h-319v-451z" />
<glyph unicode="C" horiz-adv-x="1286" d="M125 684q0 349 159 524.5t474 175.5q221 0 416 -79v-142q-196 82 -400 82q-260 0 -381 -135.5t-121 -425.5q0 -291 121 -426t381 -135q208 0 400 80v-142q-198 -77 -416 -77q-315 0 -474 175.5t-159 524.5z" />
<glyph unicode="D" horiz-adv-x="1372" d="M178 0v1366h428q641 0 641 -682q0 -684 -641 -684h-428zM326 139h270q261 0 382.5 131t121.5 414t-121.5 414t-382.5 131h-270v-1090z" />
<glyph unicode="E" horiz-adv-x="1159" d="M178 0v1366h862v-139h-714v-471h628v-144h-628v-473h714v-139h-862z" />
<glyph unicode="F" horiz-adv-x="1097" d="M178 0v1366h838v-139h-690v-471h606v-144h-606v-612h-148z" />
<glyph unicode="G" horiz-adv-x="1386" d="M125 684q0 349 159 524.5t474 175.5q226 0 430 -86v-143q-199 88 -414 88q-259 0 -380.5 -135t-121.5 -424q0 -290 121 -424.5t381 -134.5q165 0 313 49v426h-329v143h477v-653q-221 -106 -477 -106q-315 0 -474 175.5t-159 524.5z" />
<glyph unicode="H" horiz-adv-x="1380" d="M178 0v1366h148v-612h727v612h147v-1366h-147v612h-727v-612h-148z" />
<glyph unicode="I" horiz-adv-x="501" d="M178 0v1366h148v-1366h-148z" />
<glyph unicode="J" horiz-adv-x="915" d="M59 55v154q119 -82 252 -82q140 0 201 68t61 225v946h148v-958q0 -101 -24 -178t-62 -122.5t-91 -74.5t-104.5 -39t-109.5 -10q-149 0 -271 71z" />
<glyph unicode="K" horiz-adv-x="1294" d="M178 0v1366h148v-704l632 704h199l-586 -639l633 -727h-194l-535 623l-149 -164v-459h-148z" />
<glyph unicode="L" horiz-adv-x="1067" d="M178 0v1366h148v-1223h698v-143h-846z" />
<glyph unicode="M" horiz-adv-x="1619" d="M178 0v1366h160l469 -694l471 694h160v-1366h-148v1124l-483 -696l-481 696v-1124h-148z" />
<glyph unicode="N" horiz-adv-x="1490" d="M178 0v1366h168l815 -1151v1151h148v-1366h-166l-817 1151v-1151h-148z" />
<glyph unicode="O" d="M125 684q0 349 159 524.5t474 175.5q635 0 635 -700t-635 -700q-315 0 -474 175.5t-159 524.5zM272 684q0 -292 117 -426.5t369 -134.5q253 0 370 134.5t117 426.5q0 291 -117 426t-370 135q-252 0 -369 -135.5t-117 -425.5z" />
<glyph unicode="P" horiz-adv-x="1220" d="M176 0v1366h486q229 0 351 -109t122 -313t-122 -313t-351 -109h-338v-522h-148zM324 664h319q88 0 152.5 17t100.5 43t57.5 65.5t27.5 74.5t6 80t-6 80t-27.5 74.5t-57.5 65.5t-100.5 43.5t-152.5 17.5h-319v-561z" />
<glyph unicode="Q" d="M125 684q0 349 159 524.5t474 175.5q635 0 635 -700q0 -651 -553 -698q41 -170 268 -176v-134q-91 0 -163 21t-115.5 52.5t-74.5 75.5t-44.5 81.5t-20.5 79.5q-565 38 -565 698zM272 684q0 -292 117 -426.5t369 -134.5q253 0 370 134.5t117 426.5q0 291 -117 426 t-370 135q-252 0 -369 -135.5t-117 -425.5z" />
<glyph unicode="R" horiz-adv-x="1271" d="M178 0v1366h502q223 0 343 -101t120 -296q0 -88 -27.5 -159.5t-64 -112t-85.5 -69.5t-79.5 -39.5t-57.5 -15.5l375 -573h-174l-356 551h-348v-551h-148zM326 690h346q83 0 143.5 16.5t94.5 41.5t54 62.5t25.5 71t5.5 76.5t-5.5 76.5t-25.5 71.5t-54 63t-94.5 41.5 t-143.5 16.5h-346v-537z" />
<glyph unicode="S" horiz-adv-x="1150" d="M125 1004q0 73 25.5 138t78.5 120.5t147.5 88.5t219.5 33q176 0 342 -81v-152q-152 86 -328 86q-163 0 -250.5 -59.5t-87.5 -173.5q0 -48 26 -84t69.5 -59.5t100 -43t119 -38.5t125 -41t119 -55t100 -76t69.5 -109t26 -150q0 -171 -128.5 -267.5t-356.5 -96.5 q-223 0 -404 96v160q165 -109 393 -109q66 0 122 9t110.5 31.5t85.5 67.5t31 109t-26 112.5t-69.5 79t-100 54t-119 42t-125 38t-119 46.5t-100 62.5t-69.5 92t-26 129.5z" />
<glyph unicode="T" horiz-adv-x="1163" d="M25 1223v143h1112v-143h-482v-1223h-147v1223h-483z" />
<glyph unicode="U" horiz-adv-x="1476" d="M178 561v805h148v-813q0 -220 100.5 -327t306.5 -107t307 107.5t101 326.5v813h147v-805q0 -280 -143 -428.5t-412 -148.5t-412 148.5t-143 428.5z" />
<glyph unicode="V" horiz-adv-x="1251" d="M25 1366h157l441 -1155l438 1155h158l-525 -1366h-145z" />
<glyph unicode="W" horiz-adv-x="1947" d="M25 1366h155l359 -1143l360 1143h148l358 -1143l360 1143h156l-440 -1366h-150l-358 1114l-359 -1114h-151z" />
<glyph unicode="X" horiz-adv-x="1206" d="M25 0l485 692l-473 674h176l387 -549l385 549h180l-475 -676l484 -690h-177l-397 563l-395 -563h-180z" />
<glyph unicode="Y" horiz-adv-x="1224" d="M25 1366h178l405 -596l404 596h178l-508 -739v-627h-147v627z" />
<glyph unicode="Z" horiz-adv-x="1247" d="M131 0v129l780 1090h-759v147h952v-125l-785 -1094h785v-147h-973z" />
<glyph unicode="[" horiz-adv-x="784" d="M244 -238v1663h370v-139h-223v-1384h223v-140h-370z" />
<glyph unicode="\" horiz-adv-x="753" d="M-76 1548h135l752 -1749h-133z" />
<glyph unicode="]" horiz-adv-x="780" d="M172 -98h221v1384h-221v139h369v-1663h-369v140z" />
<glyph unicode="^" horiz-adv-x="1146" d="M274 969l213 444h113l213 -444h-123l-145 325l-148 -325h-123z" />
<glyph unicode="_" horiz-adv-x="1118" d="M0 -49h1118v-90h-1118v90z" />
<glyph unicode="`" horiz-adv-x="448" d="M94 1391h150l116 -236h-96z" />
<glyph unicode="a" horiz-adv-x="1093" d="M115 313q0 54 16 100t40 78.5t62 58.5t73 42t82 28t80 17t76.5 8t61 3.5t43.5 0.5q41 0 82 -2.5t61 -4.5l21 -3q0 138 -76 196t-223 58q-162 0 -299 -49v143q149 53 307 53q216 0 328.5 -108.5t112.5 -317.5v-307q0 -68 -21.5 -122t-58.5 -88t-79.5 -57.5t-93 -35 t-89.5 -16t-78 -4.5q-48 0 -96.5 6t-111 27t-109 55t-79 96.5t-32.5 144.5zM262 313q0 -192 281 -192q272 0 272 186v197q-67 12 -182 12q-371 0 -371 -203z" />
<glyph unicode="b" horiz-adv-x="1167" d="M170 307v1106h147v-414q121 41 252 41q57 0 109 -9t107 -30t99 -60t79.5 -93.5t55 -137.5t19.5 -186q0 -98 -16.5 -178t-43 -135t-65 -97t-77.5 -66t-85.5 -39t-84.5 -20t-78 -5q-110 0 -192 27t-123.5 64t-66.5 86.5t-30.5 82t-5.5 63.5zM317 299q0 -180 271 -180 q45 0 81.5 6.5t80 31t72.5 66.5t49 119t20 182q0 199 -76.5 289t-245.5 90q-128 0 -252 -51v-553z" />
<glyph unicode="c" horiz-adv-x="966" d="M119 512q0 126 29.5 222t75.5 153t111.5 92.5t128 48t134.5 12.5q155 0 303 -57v-141q-139 57 -287 57q-183 0 -265.5 -92t-82.5 -295q0 -204 82.5 -295.5t265.5 -91.5q155 0 287 57v-143q-143 -55 -303 -55q-72 0 -134.5 12.5t-128 48t-111.5 92t-75.5 153t-29.5 222.5z " />
<glyph unicode="d" horiz-adv-x="1150" d="M129 524q0 89 15 162.5t40 126t62 92.5t77 65t87.5 40.5t92 21.5t93.5 6q136 0 254 -39v412h147v-1106q0 -31 -5.5 -63.5t-30.5 -81.5t-67 -85.5t-124 -63.5t-192 -27q-58 0 -112 10.5t-118 45t-110 90.5t-77.5 157.5t-31.5 236.5zM276 524q0 -88 13 -156.5t37 -111 t52 -71.5t65 -42.5t67.5 -18.5t67.5 -5q272 0 272 180v553q-124 51 -254 51q-167 0 -243.5 -90.5t-76.5 -288.5z" />
<glyph unicode="e" horiz-adv-x="1136" d="M129 498q0 147 23 235q76 285 378 305q24 2 48 2q73 0 135 -17t105 -43.5t78 -66.5t56.5 -78t37 -86t23 -82.5t11 -75.5t4 -56.5t0.5 -34.5v-4l-4 -72h-745q13 -153 92.5 -223t238.5 -70q223 0 351 76v-152q-148 -71 -365 -71q-49 0 -93.5 6t-92 21.5t-87.5 40.5t-77 65 t-62 92.5t-40 126t-15 162.5zM279 555h598q0 15 -1.5 34.5t-8.5 55t-18.5 67.5t-34.5 68t-53 61.5t-77.5 42.5t-105.5 17q-151 0 -220 -79t-79 -267z" />
<glyph unicode="f" horiz-adv-x="675" d="M82 887v135h176v55q0 77 14.5 138.5t35.5 100t54.5 66.5t60.5 41t64.5 20t55.5 8t45 1q54 0 98 -12v-131q-40 8 -74 8q-21 0 -32 -0.5t-31.5 -2.5t-32 -6t-28.5 -12t-27 -19.5t-22 -30t-18 -41.5t-10.5 -55t-4.5 -71v-57h280v-135h-280v-887h-148v887h-176z" />
<glyph unicode="g" horiz-adv-x="1101" d="M123 516q0 130 30.5 228.5t75 153t106.5 88.5t114 44t108 10q107 0 186.5 -26.5t120 -62t64.5 -83.5t29.5 -79.5t5.5 -61.5v-770q0 -53 -10.5 -99.5t-40.5 -94t-78 -81.5t-129 -55.5t-187 -21.5q-139 0 -291 37v139q136 -37 275 -37q80 0 138.5 12.5t91.5 31.5t52 48 t25 55.5t6 61.5v102q-112 -37 -240 -37q-68 0 -127 12t-121 45.5t-105.5 87t-71 144t-27.5 209.5zM270 516q0 -92 18 -159t45 -105t69.5 -60.5t82 -29t90.5 -6.5q125 0 240 47v530q0 172 -258 172q-43 0 -78 -6.5t-75.5 -30.5t-68.5 -64.5t-46.5 -114t-18.5 -173.5z" />
<glyph unicode="h" horiz-adv-x="1181" d="M193 0v1411h147v-436q154 65 309 65q187 0 290 -113.5t103 -320.5v-606h-147v606q0 146 -64 216.5t-198 70.5q-143 0 -293 -62v-831h-147z" />
<glyph unicode="i" horiz-adv-x="540" d="M193 1204v162h163v-162h-163zM201 0h147v1022h-147v-1022z" />
<glyph unicode="j" horiz-adv-x="514" d="M6 -258q66 1 107.5 14.5t63.5 41.5t30 62.5t8 88.5v1073h147v-1081q0 -169 -88 -252.5t-268 -83.5v137zM207 1204v162h164v-162h-164z" />
<glyph unicode="k" horiz-adv-x="1124" d="M188 0v1411h148v-891l459 502h200l-436 -469l492 -553h-197l-391 449l-127 -138v-311h-148z" />
<glyph unicode="l" horiz-adv-x="552" d="M207 0v1411h147v-1411h-147z" />
<glyph unicode="m" horiz-adv-x="1824" d="M193 0v942q39 20 86.5 38.5t140 39t182.5 20.5q165 0 270 -84q195 84 379 84q186 0 288.5 -98t102.5 -276v-666h-147v666q0 34 -4.5 61t-20 59.5t-42 54.5t-74.5 37t-113 15q-132 0 -283 -51q33 -73 33 -176v-666h-147v666q0 34 -4.5 61.5t-20.5 60t-42.5 54.5t-76 36.5 t-116.5 14.5q-122 0 -244 -37v-856h-147z" />
<glyph unicode="n" horiz-adv-x="1189" d="M168 0v940q37 19 87 38t149 40.5t196 21.5q194 0 300 -98t106 -276v-666h-148v666q0 34 -4.5 61t-21.5 59.5t-45 54.5t-80 37t-123 15q-126 0 -269 -41v-852h-147z" />
<glyph unicode="o" horiz-adv-x="1155" d="M100 512q0 126 29.5 222t76 153t111.5 92.5t128 48t135 12.5q50 0 96 -6t95 -22.5t90.5 -42t79 -67t63.5 -95t41.5 -129t15.5 -166.5t-15.5 -166.5t-41.5 -129t-63.5 -95t-79 -67t-90.5 -42t-95 -22.5t-96 -6q-72 0 -135 12.5t-128 48t-111.5 92.5t-76 153t-29.5 222z M248 512q0 -205 79.5 -299t252.5 -94q175 0 254 93.5t79 299.5t-79 299.5t-254 93.5q-173 0 -252.5 -94t-79.5 -299z" />
<glyph unicode="p" horiz-adv-x="1159" d="M168 -379v1096q0 20 2.5 42t13 55t27 62t49 60.5t75 53.5t108 36t145.5 14q58 0 112 -10.5t117.5 -45.5t110 -91.5t77.5 -158t31 -236.5q0 -89 -15 -162.5t-40 -126t-62 -92.5t-77 -65t-87.5 -40.5t-92 -21.5t-93.5 -6q-126 0 -254 39v-402h-147zM315 172 q117 -51 254 -51q169 0 244.5 89.5t75.5 289.5q0 104 -19.5 180.5t-48.5 118.5t-72 67t-79.5 32t-81.5 7q-273 0 -273 -182v-551z" />
<glyph unicode="q" horiz-adv-x="1150" d="M115 498q0 135 31 236.5t77.5 158t110 91.5t117.5 45.5t112 10.5q110 0 192 -27t123.5 -64t66.5 -86.5t30.5 -82t5.5 -63.5v-1096h-147v402q-116 -39 -252 -39q-49 0 -93.5 6t-92 21.5t-87.5 40.5t-77 65t-62 92.5t-40 126t-15 162.5zM262 500q0 -200 75.5 -289.5 t244.5 -89.5q135 0 252 51v551q0 182 -271 182q-45 0 -81.5 -7t-79.5 -32t-72 -67t-48.5 -118.5t-19.5 -180.5z" />
<glyph unicode="r" horiz-adv-x="702" d="M166 0v940q42 18 98 36.5t171.5 40t226.5 21.5v-141q-173 -5 -349 -53v-844h-147z" />
<glyph unicode="s" horiz-adv-x="872" d="M100 743q0 56 20 107t61 94.5t113.5 69.5t168.5 26q132 0 262 -63v-148q-117 70 -246 70q-34 0 -64 -3.5t-62 -14t-54 -27.5t-36.5 -45.5t-14.5 -65.5q0 -40 30.5 -68t78.5 -44.5t106.5 -32t117.5 -39t107 -56.5t78.5 -93.5t30.5 -141.5q0 -133 -100 -208.5t-275 -75.5 q-170 0 -309 77v156q147 -90 303 -90q233 0 233 141q0 55 -30.5 93t-78.5 59t-106.5 37t-117.5 35.5t-107 47t-78.5 79t-30.5 124.5z" />
<glyph unicode="t" horiz-adv-x="706" d="M49 887v135h178v289h148v-289h264v-135h-264v-623q0 -77 33 -109t114 -32q64 0 117 24v-139q-67 -24 -135 -24q-32 0 -62 4.5t-71 22t-71 46.5t-51.5 85t-21.5 130v615h-178z" />
<glyph unicode="u" horiz-adv-x="1202" d="M168 430v592h147v-600q0 -155 68 -228t213 -73q143 0 212 73t69 228v600h147v-592q0 -213 -112 -329.5t-316 -116.5t-316 116.5t-112 329.5z" />
<glyph unicode="v" horiz-adv-x="1062" d="M66 1022h157l309 -838l310 838h157l-393 -1022h-149z" />
<glyph unicode="w" horiz-adv-x="1603" d="M78 1022h155l261 -791l235 791h141l238 -791l260 791h156l-340 -1022h-150l-233 764l-234 -764h-149z" />
<glyph unicode="x" horiz-adv-x="1032" d="M57 0l365 518l-354 504h174l268 -379l268 379h180l-356 -504l-2 -4l363 -514h-177l-274 389l-274 -389h-181z" />
<glyph unicode="y" horiz-adv-x="1028" d="M63 1022h158l291 -809l295 809h158l-418 -1122q-32 -87 -74 -148.5t-86 -91.5t-83 -42.5t-79 -12.5q-51 0 -96 18v135q40 -18 88 -18q39 0 76 28.5t62.5 69t45.5 81t29 69.5l10 28z" />
<glyph unicode="z" horiz-adv-x="950" d="M92 0v133l557 748h-543v141h734v-129l-561 -752h561v-141h-748z" />
<glyph unicode="{" horiz-adv-x="763" d="M186 551v100q52 13 90.5 49t38.5 99v319q0 149 79.5 229t228.5 80v-139q-82 -3 -121 -36.5t-39 -123.5v-329q0 -119 -119 -199q119 -80 119 -199v-329q0 -88 39.5 -122.5t120.5 -37.5v-137q-149 0 -228.5 79t-79.5 228v319q0 112 -129 150z" />
<glyph unicode="|" horiz-adv-x="907" d="M379 -203v1565h147v-1565h-147z" />
<glyph unicode="}" horiz-adv-x="753" d="M156 -88q82 3 120.5 37t38.5 123v329q0 118 121 199q-121 81 -121 199v329q0 90 -38 123.5t-121 36.5v139q149 0 228 -80t79 -229v-319q0 -63 38.5 -99t90.5 -49v-100q-129 -38 -129 -150v-319q0 -149 -79 -228t-228 -79v137z" />
<glyph unicode="~" horiz-adv-x="1024" d="M201 473v125q42 53 88.5 70.5t89.5 6.5t88 -34t90 -45.5t88 -33.5t89.5 6.5t88.5 70.5v-123q-42 -53 -88.5 -70.5t-89.5 -6.5t-88 33.5t-90 44.5t-88 33t-89.5 -6.5t-88.5 -70.5z" />
<glyph unicode="&#xa1;" horiz-adv-x="741" d="M303 860v162h164v-162h-164zM311 -344l15 1022h118l15 -1022h-148z" />
<glyph unicode="&#xa2;" horiz-adv-x="976" d="M117 684q0 113 23.5 202.5t62 146t93.5 95.5t111 56.5t121 23.5v158h103v-156q133 -3 266 -55v-141q-125 52 -266 55v-772q144 3 266 57v-143q-124 -49 -266 -55v-156h-103v158q-65 6 -121 24t-111 57t-93.5 95.5t-62 146t-23.5 203.5zM264 684q0 -179 63 -270.5 t201 -110.5v762q-138 -20 -201 -111t-63 -270z" />
<glyph unicode="&#xa3;" horiz-adv-x="1136" d="M104 -31v150q78 38 177 45v411h-177v136h177v293q0 57 14 110t46.5 103t81 86.5t124 58.5t168.5 22q162 0 309 -79v-150q-139 88 -297 88q-72 0 -126.5 -14.5t-86.5 -37t-52 -54t-27 -62t-7 -65.5v-299h412v-136h-412v-415q51 -7 146 -26.5t155 -29.5t142.5 -7t152.5 30 v-150q-71 -27 -152.5 -30.5t-153 10t-153.5 29t-154 26.5t-153.5 1.5t-153.5 -44.5z" />
<glyph unicode="&#xa5;" horiz-adv-x="1232" d="M37 1366h180l404 -588l403 588h180l-444 -645h256v-123h-322v-192h322v-123h-322v-283h-147v283h-322v123h322v192h-322v123h256z" />
<glyph unicode="&#xa7;" horiz-adv-x="1112" d="M119 727q0 163 186 223q-82 53 -82 144q0 43 13 83.5t44 78.5t77 66t117 45t159 17q157 0 297 -61v-145q-130 69 -285 69q-46 0 -87 -5.5t-87 -20.5t-73 -47.5t-27 -79.5q0 -15 2 -23.5t15 -24.5t38 -28.5t76 -29.5t125 -34q65 -15 111 -29t101 -40.5t89 -59t57 -83 t23 -113.5q0 -76 -51 -130.5t-126 -78.5q72 -61 72 -158q0 -130 -112 -204t-310 -74q-204 0 -350 73v152q135 -84 340 -84q43 0 82.5 4.5t90.5 17t81.5 42t30.5 73.5q0 31 -7.5 51t-32.5 44t-81 45t-146 42q-71 16 -118 30t-99 37.5t-82.5 51t-50.5 69.5t-20 95zM266 727 q0 -15 2 -23.5t15 -24t38.5 -28t77 -29.5t125.5 -34q132 -28 219 -74q117 33 117 115q0 30 -7.5 50t-32.5 44t-81 45.5t-145 42.5q-92 20 -176 49q-152 -27 -152 -133z" />
<glyph unicode="&#xa8;" horiz-adv-x="788" d="M162 1155v162h162v-162h-162zM465 1155v162h162v-162h-162z" />
<glyph unicode="&#xa9;" horiz-adv-x="1593" d="M98 682q0 190 94.5 351.5t255.5 255t351 93.5q143 0 272.5 -55.5t223 -149t149 -223t55.5 -272.5q0 -142 -55.5 -271t-149 -222.5t-223 -149t-272.5 -55.5q-189 0 -350.5 93.5t-256 254.5t-94.5 350zM172 682q0 -169 84.5 -313.5t229 -229t313.5 -84.5q127 0 243 50 t200 134t133.5 200t49.5 243t-49.5 243.5t-133.5 201t-200 134.5t-243 50q-169 0 -313.5 -84.5t-229 -229.5t-84.5 -315zM449 682q0 410 368 410q131 0 244 -45v-82q-107 45 -234 45q-152 0 -222 -79t-70 -249q0 -169 70 -248.5t222 -79.5q122 0 234 47v-82 q-113 -45 -244 -45q-368 0 -368 408z" />
<glyph unicode="&#xaa;" horiz-adv-x="806" d="M156 979q0 39 14.5 69.5t35 49.5t52 33t56.5 20t58.5 9.5t47 4t33.5 0.5l92 -6q0 78 -42.5 111t-125.5 33q-91 0 -164 -29v80q72 28 168 28q246 0 246 -235v-172q0 -55 -25 -93t-65.5 -55t-74.5 -23.5t-69 -6.5t-69.5 6.5t-75.5 24t-66.5 56.5t-25.5 95zM238 981 q0 -109 155 -109q152 0 152 105v108q-38 7 -101 7q-206 0 -206 -111z" />
<glyph unicode="&#xab;" horiz-adv-x="1132" d="M63 522l347 389h198l-364 -389l364 -391h-198zM453 522l346 389h198l-364 -389l364 -391h-198z" />
<glyph unicode="&#xac;" horiz-adv-x="1273" d="M199 528v136h876v-340h-135v204h-741z" />
<glyph unicode="&#xad;" horiz-adv-x="950" d="M162 539v143h624v-143h-624z" />
<glyph unicode="&#xae;" horiz-adv-x="1593" d="M98 682q0 190 94.5 351.5t255.5 255t351 93.5q143 0 272.5 -55.5t223 -149t149 -223t55.5 -272.5q0 -142 -55.5 -271t-149 -222.5t-223 -149t-272.5 -55.5q-189 0 -350.5 93.5t-256 254.5t-94.5 350zM172 682q0 -169 84.5 -313.5t229 -229t313.5 -84.5q127 0 243 50 t200 134t133.5 200t49.5 243t-49.5 243.5t-133.5 201t-200 134.5t-243 50q-169 0 -313.5 -84.5t-229 -229.5t-84.5 -315zM545 283v798h293q131 0 201.5 -58.5t70.5 -172.5q0 -52 -16 -94t-37.5 -65t-50.5 -40.5t-46 -23t-34 -9.5l219 -335h-103l-206 323h-205v-323h-86z M631 688h203q48 0 83.5 9.5t55.5 24t31.5 36t14.5 41.5t3 45q0 32 -6.5 56t-24 48.5t-57.5 37.5t-100 13h-203v-311z" />
<glyph unicode="&#xaf;" horiz-adv-x="825" d="M176 1180v108h479v-108h-479z" />
<glyph unicode="&#xb0;" horiz-adv-x="792" d="M168 1143q0 111 56.5 169t166.5 58q109 0 166 -58.5t57 -168.5q0 -112 -57 -170t-166 -58q-110 0 -166.5 57.5t-56.5 170.5zM242 1143q0 -82 35 -118t114 -36q78 0 114 36.5t36 117.5q0 80 -36 116.5t-114 36.5q-79 0 -114 -36.5t-35 -116.5z" />
<glyph unicode="&#xb1;" horiz-adv-x="1198" d="M231 68v122h727v-122h-727zM231 598v123h304v301h122v-301h301v-123h-301v-303h-122v303h-304z" />
<glyph unicode="&#xb2;" horiz-adv-x="671" d="M109 948v70q55 41 112 91t119.5 115.5t101.5 135.5t39 127q0 52 -38 88.5t-134 36.5q-107 0 -192 -62v86q91 56 198 56q65 0 114 -18t77 -48t41.5 -65t13.5 -74q0 -196 -321 -459h331v-80h-462z" />
<glyph unicode="&#xb3;" horiz-adv-x="661" d="M109 985v82q88 -49 186 -49t150.5 36.5t52.5 104.5q0 69 -53.5 105t-153.5 36h-80v76h84q80 0 122 30.5t42 88.5q0 57 -44.5 87t-129.5 30q-86 0 -158 -37v80q83 37 168 37q65 0 114 -17t76 -46.5t40.5 -63t13.5 -70.5q0 -31 -10 -58t-23.5 -43t-27.5 -27.5t-24 -16.5 l-10 -4q5 -2 14 -6.5t31.5 -21t40 -36.5t31.5 -53.5t14 -71.5q0 -41 -14.5 -78t-45 -69t-85 -51t-125.5 -19q-104 0 -196 45z" />
<glyph unicode="&#xb4;" horiz-adv-x="483" d="M123 1155l117 236h151l-170 -236h-98z" />
<glyph unicode="&#xb5;" horiz-adv-x="1247" d="M203 -430v1452h147v-664q0 -34 4.5 -61.5t21 -60t45 -54.5t80 -36.5t122.5 -14.5q131 0 268 39v852h147v-938q-34 -18 -85.5 -38t-150 -41t-194.5 -21q-70 0 -134.5 20.5t-93.5 41.5l-30 20v-496h-147z" />
<glyph unicode="&#xb6;" horiz-adv-x="911" d="M78 946q0 203 121.5 311.5t349.5 108.5h203v-1366h-136v524h-67q-228 0 -349.5 109t-121.5 313z" />
<glyph unicode="&#xb7;" horiz-adv-x="636" d="M238 475v164h161v-164h-161z" />
<glyph unicode="&#xb8;" horiz-adv-x="518" d="M115 -246l168 236h116l-129 -236h-155z" />
<glyph unicode="&#xb9;" horiz-adv-x="491" d="M109 1503v94l135 86h90v-735h-78v651z" />
<glyph unicode="&#xba;" horiz-adv-x="854" d="M156 1090q0 70 16.5 124t42 85.5t62 51t71 26.5t74.5 7t75 -7t71.5 -26.5t62 -51t41.5 -85.5t16 -124q0 -86 -23.5 -147t-64.5 -91t-84 -42.5t-94 -12.5q-40 0 -74.5 7t-71 27t-62 51.5t-42 84.5t-16.5 123zM238 1090q0 -114 43.5 -166t140.5 -52q98 0 141 51.5t43 166.5 q0 116 -43 167.5t-141 51.5q-97 0 -140.5 -52t-43.5 -167z" />
<glyph unicode="&#xbb;" horiz-adv-x="1132" d="M137 131l363 391l-363 389h197l348 -389l-348 -391h-197zM526 131l363 391l-363 389h197l348 -389l-348 -391h-197z" />
<glyph unicode="&#xbc;" horiz-adv-x="1433" d="M106 1200v94l134 86h92v-733h-80v651zM147 -45l895 1448h97l-895 -1448h-97zM788 221v84l347 428h90v-438h104v-74h-104v-221h-80v221h-357zM877 295h268v326z" />
<glyph unicode="&#xbd;" horiz-adv-x="1460" d="M106 1200v94l134 86h92v-733h-80v651zM147 -45l895 1448h97l-895 -1448h-97zM870 0v70q55 40 112 90.5t119 115.5t101 135t39 126q0 53 -37.5 90t-134.5 37q-104 0 -192 -64v88q96 55 198 55q126 0 186 -60.5t60 -145.5q0 -193 -322 -457h332v-80h-461z" />
<glyph unicode="&#xbe;" horiz-adv-x="1654" d="M135 684v80q92 -47 189 -47t148.5 36t51.5 105q0 68 -53.5 104.5t-153.5 36.5h-79v74h84q79 0 121 31t42 88t-45 88t-129 31q-81 0 -157 -39v82q83 37 168 37q125 0 184 -58.5t59 -140.5q0 -31 -9.5 -58t-23.5 -43t-28 -28t-24 -17l-9 -4q5 -2 14 -6.5t31.5 -20.5 t40 -35.5t31.5 -52.5t14 -71q0 -91 -65.5 -155t-204.5 -64q-101 0 -197 47zM369 -45l895 1448h96l-895 -1448h-96zM1010 221v84l346 428h90v-438h104v-74h-104v-221h-80v221h-356zM1098 295h268v326z" />
<glyph unicode="&#xbf;" horiz-adv-x="989" d="M147 20q0 60 17 108t44 80t60 60t66 57.5t60 63t44 84.5t17 115v92h147v-102q0 -76 -17 -137.5t-44 -101.5t-59.5 -72.5t-65.5 -58.5t-60 -52t-44 -60t-17 -76q0 -114 68 -173.5t202 -59.5q144 0 275 90v-160q-5 -3 -13.5 -8.5t-37.5 -18.5t-60.5 -23t-79.5 -18.5 t-96 -8.5q-47 0 -93.5 7t-105.5 31.5t-102.5 64t-74 111t-30.5 166.5zM446 860v162h164v-162h-164z" />
<glyph unicode="&#xc0;" horiz-adv-x="1325" d="M43 0l545 1366h147l543 -1366h-158l-164 426h-589l-164 -426h-160zM422 567h479l-239 625zM438 1718h152l117 -235h-99z" />
<glyph unicode="&#xc1;" horiz-adv-x="1325" d="M43 0l545 1366h147l543 -1366h-158l-164 426h-589l-164 -426h-160zM422 567h479l-239 625zM614 1483l117 235h152l-170 -235h-99z" />
<glyph unicode="&#xc2;" horiz-adv-x="1325" d="M43 0l545 1366h147l543 -1366h-158l-164 426h-589l-164 -426h-160zM422 567h479l-239 625zM455 1483l163 248h87l163 -248h-114l-92 145l-93 -145h-114z" />
<glyph unicode="&#xc3;" horiz-adv-x="1325" d="M43 0l545 1366h147l543 -1366h-158l-164 426h-589l-164 -426h-160zM373 1485v117q39 49 82 65t83 5.5t81 -31.5t82.5 -42t81.5 -31.5t83 5.5t82 65v-112q-39 -49 -82 -65.5t-83 -6.5t-81 30.5t-82.5 41.5t-81.5 31t-83 -6.5t-82 -65.5zM422 567h479l-239 625z" />
<glyph unicode="&#xc4;" horiz-adv-x="1325" d="M43 0l545 1366h147l543 -1366h-158l-164 426h-589l-164 -426h-160zM422 567h479l-239 625zM428 1483v164h164v-164h-164zM731 1483v164h164v-164h-164z" />
<glyph unicode="&#xc5;" horiz-adv-x="1325" d="M43 0l545 1366h147l543 -1366h-158l-164 426h-589l-164 -426h-160zM422 567h479l-239 625zM496 1591q0 81 43 124.5t123 43.5t122.5 -43t42.5 -125t-42.5 -125t-122.5 -43t-123 43.5t-43 124.5zM569 1591q0 -54 21 -76t72 -22q50 0 71 22t21 76t-21.5 77.5t-70.5 23.5 q-51 0 -72 -23.5t-21 -77.5z" />
<glyph unicode="&#xc6;" horiz-adv-x="1939" d="M51 0l811 1366h955v-141h-691v-471h607v-144h-607v-469h691v-141h-838v428h-506l-252 -428h-170zM559 575h420v644h-45z" />
<glyph unicode="&#xc7;" horiz-adv-x="1286" d="M125 686q0 349 159 524.5t474 175.5q218 0 416 -77v-142q-189 80 -400 80q-260 0 -381 -134.5t-121 -424.5q0 -291 121 -426t381 -135q208 0 400 80v-141q-173 -69 -357 -78l-125 -232h-155l163 232q-575 35 -575 698z" />
<glyph unicode="&#xc8;" horiz-adv-x="1159" d="M178 0v1366h862v-139h-714v-471h628v-144h-628v-473h714v-139h-862zM444 1718h152l117 -235h-99z" />
<glyph unicode="&#xc9;" horiz-adv-x="1159" d="M178 0v1366h862v-139h-714v-471h628v-144h-628v-473h714v-139h-862zM565 1483l115 235h151l-169 -235h-97z" />
<glyph unicode="&#xca;" horiz-adv-x="1159" d="M178 0v1366h862v-139h-714v-471h628v-144h-628v-473h714v-139h-862zM412 1483l166 248h84l165 -248h-114l-92 145l-95 -145h-114z" />
<glyph unicode="&#xcb;" horiz-adv-x="1159" d="M178 0v1366h862v-139h-714v-471h628v-144h-628v-473h714v-139h-862zM395 1483v164h162v-164h-162zM698 1483v164h162v-164h-162z" />
<glyph unicode="&#xcc;" horiz-adv-x="501" d="M33 1718h151l117 -235h-98zM178 0v1366h148v-1366h-148z" />
<glyph unicode="&#xcd;" horiz-adv-x="501" d="M178 0h148v1366h-148v-1366zM203 1483l116 235h152l-170 -235h-98z" />
<glyph unicode="&#xce;" horiz-adv-x="501" d="M45 1483l164 248h86l164 -248h-115l-92 145l-92 -145h-115zM178 0h148v1366h-148v-1366z" />
<glyph unicode="&#xcf;" horiz-adv-x="501" d="M18 1483v164h164v-164h-164zM178 0h148v1366h-148v-1366zM322 1483v164h163v-164h-163z" />
<glyph unicode="&#xd0;" horiz-adv-x="1468" d="M109 621v122h159v623h428q641 0 641 -682q0 -684 -641 -684h-428v621h-159zM416 139h270q261 0 382.5 131t121.5 414t-121.5 414t-382.5 131h-270v-486h350v-122h-350v-482z" />
<glyph unicode="&#xd1;" horiz-adv-x="1490" d="M178 0v1366h168l815 -1151v1151h148v-1366h-166l-817 1151v-1151h-148zM455 1485v117q39 49 82 65t83 5.5t81.5 -31.5l83 -42t81.5 -31.5t83.5 5.5t82.5 65v-112q-39 -49 -82.5 -65.5t-83.5 -6.5t-81.5 30.5t-83 41.5t-81.5 31t-83 -6.5t-82 -65.5z" />
<glyph unicode="&#xd2;" d="M125 684q0 349 159 524.5t474 175.5t474 -175.5t159 -524.5t-159 -524.5t-474 -175.5t-474 175.5t-159 524.5zM272 684q0 -292 117 -426.5t369 -134.5t368.5 134.5t116.5 426.5q0 291 -116.5 426t-368.5 135t-369 -135.5t-117 -425.5zM563 1718h150l116 -235h-96z" />
<glyph unicode="&#xd3;" d="M125 684q0 349 159 524.5t474 175.5t474 -175.5t159 -524.5t-159 -524.5t-474 -175.5t-474 175.5t-159 524.5zM272 684q0 -292 117 -426.5t369 -134.5t368.5 134.5t116.5 426.5q0 291 -116.5 426t-368.5 135t-369 -135.5t-117 -425.5zM686 1483l115 235h151l-170 -235 h-96z" />
<glyph unicode="&#xd4;" d="M125 684q0 349 159 524.5t474 175.5t474 -175.5t159 -524.5t-159 -524.5t-474 -175.5t-474 175.5t-159 524.5zM272 684q0 -292 117 -426.5t369 -134.5t368.5 134.5t116.5 426.5q0 291 -116.5 426t-368.5 135t-369 -135.5t-117 -425.5zM551 1483l164 248h86l164 -248h-115 l-92 145l-92 -145h-115z" />
<glyph unicode="&#xd5;" d="M125 684q0 349 159 524.5t474 175.5q635 0 635 -700t-635 -700q-315 0 -474 175.5t-159 524.5zM272 684q0 -292 117 -426.5t369 -134.5q253 0 370 134.5t117 426.5q0 291 -117 426t-370 135q-252 0 -369 -135.5t-117 -425.5zM471 1485v117q38 49 81 65t83 5.5t81.5 -31.5 l83 -42t81.5 -31.5t83.5 5.5t82.5 65v-112q-39 -49 -82.5 -65.5t-83.5 -6.5t-81.5 30.5t-83 41.5t-81.5 31t-83 -6.5t-81 -65.5z" />
<glyph unicode="&#xd6;" d="M125 684q0 349 159 524.5t474 175.5t474 -175.5t159 -524.5t-159 -524.5t-474 -175.5t-474 175.5t-159 524.5zM272 684q0 -292 117 -426.5t369 -134.5t368.5 134.5t116.5 426.5q0 291 -116.5 426t-368.5 135t-369 -135.5t-117 -425.5zM524 1483v164h164v-164h-164z M827 1483v164h164v-164h-164z" />
<glyph unicode="&#xd7;" horiz-adv-x="985" d="M158 160l272 364l-272 365h131l207 -277l209 277h131l-273 -365l273 -364h-131l-209 276l-207 -276h-131z" />
<glyph unicode="&#xd8;" d="M102 0l158 188q-135 172 -135 496q0 348 159 524t474 176q257 0 411 -118l86 100h160l-160 -188q138 -176 138 -494q0 -349 -159.5 -525.5t-475.5 -176.5q-256 0 -410 118l-86 -100h-160zM272 684q0 -250 84 -383l721 856q-116 88 -319 88q-252 0 -369 -135.5 t-117 -425.5zM440 209q116 -88 318 -88q253 0 370 135.5t117 427.5q0 244 -84 381z" />
<glyph unicode="&#xd9;" horiz-adv-x="1476" d="M178 561v805h148v-813q0 -220 100.5 -327t306.5 -107t307 107.5t101 326.5v813h147v-805q0 -280 -143 -428.5t-412 -148.5t-412 148.5t-143 428.5zM520 1718h152l116 -235h-96z" />
<glyph unicode="&#xda;" horiz-adv-x="1476" d="M178 561v805h148v-813q0 -220 100.5 -327t306.5 -107t307 107.5t101 326.5v813h147v-805q0 -280 -143 -428.5t-412 -148.5t-412 148.5t-143 428.5zM678 1483l117 235h151l-170 -235h-98z" />
<glyph unicode="&#xdb;" horiz-adv-x="1476" d="M178 561v805h148v-813q0 -220 100.5 -327t306.5 -107t307 107.5t101 326.5v813h147v-805q0 -280 -143 -428.5t-412 -148.5t-412 148.5t-143 428.5zM526 1483l164 248h86l164 -248h-115l-92 145l-92 -145h-115z" />
<glyph unicode="&#xdc;" horiz-adv-x="1476" d="M178 561v805h148v-813q0 -220 100.5 -327t306.5 -107t307 107.5t101 326.5v813h147v-805q0 -280 -143 -428.5t-412 -148.5t-412 148.5t-143 428.5zM500 1483v164h164v-164h-164zM803 1483v164h164v-164h-164z" />
<glyph unicode="&#xdd;" horiz-adv-x="1224" d="M25 1366h178l405 -596l404 596h178l-508 -739v-627h-147v627zM539 1483l116 235h150l-170 -235h-96z" />
<glyph unicode="&#xde;" horiz-adv-x="1167" d="M176 0v1366h148v-207h266q227 0 349 -110t122 -314t-122 -313t-349 -109h-266v-313h-148zM324 455h245q88 0 152.5 17t100.5 43t57.5 65.5t27.5 74.5t6 80t-6 80t-27.5 74.5t-57.5 65.5t-100.5 43.5t-152.5 17.5h-245v-561z" />
<glyph unicode="&#xdf;" horiz-adv-x="1255" d="M180 0v868q0 89 14 164t46.5 141t82.5 112t125.5 72.5t172.5 26.5q119 0 209.5 -33t142 -88.5t77 -121t25.5 -137.5q0 -51 -19 -100.5t-46.5 -84t-55 -61.5t-46.5 -40l-19 -13q10 -4 27.5 -12.5t61 -39t77 -66t61 -94.5t27.5 -124q0 -113 -70.5 -197.5t-191 -128 t-273.5 -43.5v133q103 0 187.5 24t142 82t57.5 144q0 55 -25.5 99.5t-65.5 71.5t-92.5 45t-103 25t-100.5 7v129q145 0 232.5 62.5t87.5 181.5q0 123 -84.5 183t-222.5 60q-68 0 -119.5 -19t-91.5 -62t-61 -120t-21 -186v-860h-148z" />
<glyph unicode="&#xe0;" horiz-adv-x="1093" d="M115 313q0 54 16 100t40 78.5t62 58.5t73 42t82 28t80 17t76.5 8t61 3.5t43.5 0.5q41 0 82 -2.5t61 -4.5l21 -3q0 138 -76 196t-223 58q-162 0 -299 -49v143q149 53 307 53q215 0 328 -108.5t113 -315.5v-309q0 -68 -21.5 -122t-58.5 -88t-79.5 -57.5t-93 -35t-89.5 -16 t-78 -4.5q-48 0 -96.5 6t-111 27t-109 55t-79 96.5t-32.5 144.5zM262 313q0 -192 281 -192q272 0 272 186v197q-67 12 -182 12q-371 0 -371 -203zM356 1391h150l117 -236h-97z" />
<glyph unicode="&#xe1;" horiz-adv-x="1093" d="M115 313q0 54 16 100t40 78.5t62 58.5t73 42t82 28t80 17t76.5 8t61 3.5t43.5 0.5q41 0 82 -2.5t61 -4.5l21 -3q0 138 -76 196t-223 58q-162 0 -299 -49v143q149 53 307 53q215 0 328 -108.5t113 -315.5v-309q0 -68 -21.5 -122t-58.5 -88t-79.5 -57.5t-93 -35t-89.5 -16 t-78 -4.5q-48 0 -96.5 6t-111 27t-109 55t-79 96.5t-32.5 144.5zM262 313q0 -192 281 -192q272 0 272 186v197q-67 12 -182 12q-371 0 -371 -203zM467 1155l117 236h151l-170 -236h-98z" />
<glyph unicode="&#xe2;" horiz-adv-x="1093" d="M115 313q0 54 16 100t40 78.5t62 58.5t73 42t82 28t80 17t76.5 8t61 3.5t43.5 0.5q41 0 82 -2.5t61 -4.5l21 -3q0 138 -76 196t-223 58q-162 0 -299 -49v143q149 53 307 53q215 0 328 -108.5t113 -315.5v-309q0 -68 -21.5 -122t-58.5 -88t-79.5 -57.5t-93 -35t-89.5 -16 t-78 -4.5q-48 0 -96.5 6t-111 27t-109 55t-79 96.5t-32.5 144.5zM262 313q0 -192 281 -192q272 0 272 186v197q-67 12 -182 12q-371 0 -371 -203zM362 1155l164 246h86l164 -246h-114l-93 143l-92 -143h-115z" />
<glyph unicode="&#xe3;" horiz-adv-x="1093" d="M115 313q0 54 16 100t40 78.5t62 58.5t73 42t82 28t79.5 17t76 8t60.5 3.5t43 0.5q42 0 83.5 -2.5t61.5 -4.5l21 -3q0 138 -76 196t-223 58q-146 0 -299 -47v141q139 53 307 53q215 0 328 -108.5t113 -315.5v-309q0 -67 -21.5 -121t-58.5 -88t-79.5 -57.5t-93 -35.5 t-90 -16.5t-77.5 -4.5q-48 0 -96.5 6t-111 27t-109 55t-79 96.5t-32.5 144.5zM262 315q0 -194 281 -194q272 0 272 186v197q-67 12 -182 12q-371 0 -371 -201zM268 1157v117q39 49 82 65t83 5.5t81.5 -31.5t83 -41.5t82 -31t84 5.5t82.5 65v-113q-39 -49 -82.5 -65.5 t-84 -6.5t-82 30.5t-83 41.5t-81.5 31t-83 -6.5t-82 -65.5z" />
<glyph unicode="&#xe4;" horiz-adv-x="1093" d="M115 313q0 54 16 100t40 78.5t62 58.5t73 42t82 28t80 17t76.5 8t61 3.5t43.5 0.5q41 0 82 -2.5t61 -4.5l21 -3q0 138 -76 196t-223 58q-162 0 -299 -49v143q149 53 307 53q215 0 328 -108.5t113 -315.5v-309q0 -68 -21.5 -122t-58.5 -88t-79.5 -57.5t-93 -35t-89.5 -16 t-78 -4.5q-48 0 -96.5 6t-111 27t-109 55t-79 96.5t-32.5 144.5zM262 313q0 -192 281 -192q272 0 272 186v197q-67 12 -182 12q-371 0 -371 -203zM336 1155v162h164v-162h-164zM639 1155v162h164v-162h-164z" />
<glyph unicode="&#xe5;" horiz-adv-x="1093" d="M115 313q0 54 16 100t40 78.5t62 58.5t73 42t82 28t80 17t76.5 8t61 3.5t43.5 0.5q41 0 82 -2.5t61 -4.5l21 -3q0 138 -76 196t-223 58q-162 0 -299 -49v143q149 53 307 53q215 0 328 -108.5t113 -315.5v-309q0 -68 -21.5 -122t-58.5 -88t-79.5 -57.5t-93 -35t-89.5 -16 t-78 -4.5q-48 0 -96.5 6t-111 27t-109 55t-79 96.5t-32.5 144.5zM262 313q0 -192 281 -192q272 0 272 186v197q-67 12 -182 12q-371 0 -371 -203zM393 1264q0 81 43 124.5t123 43.5t123 -43.5t43 -124.5t-43 -124.5t-123 -43.5t-123 43.5t-43 124.5zM467 1264 q0 -55 20.5 -78t71.5 -23q49 0 70.5 23.5t21.5 77.5t-21 76t-71 22q-51 0 -71.5 -22t-20.5 -76z" />
<glyph unicode="&#xe6;" horiz-adv-x="1824" d="M111 313q0 54 16 100t40 78.5t62 58.5t73 42t82 28t79.5 17t76 8t60.5 3.5t43 0.5q41 0 82.5 -2.5t62.5 -4.5l21 -3q0 138 -76 196t-223 58q-162 0 -299 -49v143q149 53 305 53q268 0 377 -168q113 168 362 168q73 0 135 -17t105.5 -44t78.5 -67t56.5 -78t37 -86t23 -82 t11 -75t4 -57t0.5 -35v-3l-4 -72h-746q13 -153 93.5 -223t240.5 -70q219 0 350 76v-152q-151 -71 -366 -71q-248 0 -365 151q-31 -46 -79.5 -78t-103 -46.5t-99.5 -20.5t-88 -6q-48 0 -96.5 6t-111 27t-109 55t-79 96.5t-32.5 144.5zM258 313q0 -192 281 -192q270 0 270 186 v197q-65 12 -180 12q-371 0 -371 -203zM956 555h598q0 15 -1.5 34.5t-8.5 55t-18.5 67.5t-34.5 68t-53 61.5t-77.5 42.5t-105.5 17q-150 0 -219.5 -79t-79.5 -267z" />
<glyph unicode="&#xe7;" horiz-adv-x="966" d="M119 512q0 126 29.5 222t75.5 153t111.5 92.5t128 48t134.5 12.5q155 0 303 -57v-141q-139 57 -287 57q-183 0 -265.5 -92t-82.5 -295q0 -204 82.5 -295.5t265.5 -91.5q155 0 287 57v-143q-114 -42 -225 -53l-127 -230h-156l164 228q-68 4 -126.5 20t-117.5 53.5 t-100.5 94.5t-67.5 149t-26 211z" />
<glyph unicode="&#xe8;" horiz-adv-x="1136" d="M129 498q0 147 23 235q76 285 378 305q24 2 48 2q73 0 135 -17t105 -43.5t78 -66.5t56.5 -78t37 -86t23 -82.5t11 -75.5t4 -56.5t0.5 -34.5v-4l-4 -72h-745q13 -153 92.5 -223t238.5 -70q223 0 351 76v-152q-148 -71 -365 -71q-49 0 -93.5 6t-92 21.5t-87.5 40.5t-77 65 t-62 92.5t-40 126t-15 162.5zM279 555h598q0 15 -1.5 34.5t-8.5 55t-18.5 67.5t-34.5 68t-53 61.5t-77.5 42.5t-105.5 17q-151 0 -220 -79t-79 -267zM395 1391h152l117 -236h-99z" />
<glyph unicode="&#xe9;" horiz-adv-x="1136" d="M129 498q0 147 23 235q76 285 378 305q24 2 48 2q73 0 135 -17t105 -43.5t78 -66.5t56.5 -78t37 -86t23 -82.5t11 -75.5t4 -56.5t0.5 -34.5v-4l-4 -72h-745q13 -153 92.5 -223t238.5 -70q223 0 351 76v-152q-148 -71 -365 -71q-49 0 -93.5 6t-92 21.5t-87.5 40.5t-77 65 t-62 92.5t-40 126t-15 162.5zM279 555h598q0 15 -1.5 34.5t-8.5 55t-18.5 67.5t-34.5 68t-53 61.5t-77.5 42.5t-105.5 17q-151 0 -220 -79t-79 -267zM506 1155l117 236h151l-170 -236h-98z" />
<glyph unicode="&#xea;" horiz-adv-x="1136" d="M129 498q0 147 23 235q76 285 378 305q24 2 48 2q73 0 135 -17t105 -43.5t78 -66.5t56.5 -78t37 -86t23 -82.5t11 -75.5t4 -56.5t0.5 -34.5v-4l-4 -72h-745q13 -153 92.5 -223t238.5 -70q223 0 351 76v-152q-148 -71 -365 -71q-49 0 -93.5 6t-92 21.5t-87.5 40.5t-77 65 t-62 92.5t-40 126t-15 162.5zM279 555h598q0 15 -1.5 34.5t-8.5 55t-18.5 67.5t-34.5 68t-53 61.5t-77.5 42.5t-105.5 17q-151 0 -220 -79t-79 -267zM371 1155l164 246h86l163 -246h-114l-92 143l-93 -143h-114z" />
<glyph unicode="&#xeb;" horiz-adv-x="1136" d="M129 498q0 147 23 235q76 285 378 305q24 2 48 2q73 0 135 -17t105 -43.5t78 -66.5t56.5 -78t37 -86t23 -82.5t11 -75.5t4 -56.5t0.5 -34.5v-4l-4 -72h-745q13 -153 92.5 -223t238.5 -70q223 0 351 76v-152q-148 -71 -365 -71q-49 0 -93.5 6t-92 21.5t-87.5 40.5t-77 65 t-62 92.5t-40 126t-15 162.5zM279 555h598q0 15 -1.5 34.5t-8.5 55t-18.5 67.5t-34.5 68t-53 61.5t-77.5 42.5t-105.5 17q-151 0 -220 -79t-79 -267zM344 1155v162h164v-162h-164zM647 1155v162h164v-162h-164z" />
<glyph unicode="&#xec;" horiz-adv-x="552" d="M57 1391h152l117 -236h-99zM203 0v1022h147v-1022h-147z" />
<glyph unicode="&#xed;" horiz-adv-x="552" d="M203 0h147v1022h-147v-1022zM227 1155l115 236h152l-170 -236h-97z" />
<glyph unicode="&#xee;" horiz-adv-x="552" d="M68 1155l165 246h84l166 -246h-114l-93 143l-94 -143h-114zM203 0h147v1022h-147v-1022z" />
<glyph unicode="&#xef;" horiz-adv-x="552" d="M43 1155v162h162v-162h-162zM203 0h147v1022h-147v-1022zM346 1155v162h162v-162h-162z" />
<glyph unicode="&#xf0;" horiz-adv-x="1193" d="M119 444q0 198 125 314t340 116q188 0 307 -90q-24 243 -174 365l-230 -129l-55 98l170 94q-86 33 -192 33q-41 0 -111 -8v137q65 10 127 10q186 0 328 -86l190 107l53 -98l-145 -84q197 -193 197 -596q0 -643 -465 -643q-99 0 -179.5 27.5t-132.5 73t-87.5 106 t-50.5 123.5t-15 130zM266 446q0 -21 2 -42.5t9.5 -54.5t20.5 -62t37.5 -60.5t56.5 -53.5t81.5 -36t110.5 -14q22 0 35.5 0.5t41.5 5t46.5 13t45.5 25.5t45.5 41t39 62.5t33 86.5t21 115.5t9.5 148.5q-16 17 -40 34t-62.5 37t-94.5 32.5t-120 12.5q-153 0 -235.5 -75.5 t-82.5 -215.5z" />
<glyph unicode="&#xf1;" horiz-adv-x="1189" d="M168 0v940q37 19 87 38t149 40.5t196 21.5q194 0 300 -98t106 -276v-666h-148v666q0 34 -4.5 61t-21.5 59.5t-45 54.5t-80 37t-123 15q-126 0 -269 -41v-852h-147zM299 1157v117q38 49 81 65t83 5.5t81 -31.5t82.5 -41.5t82 -31t83.5 5.5t82 65v-113q-39 -49 -82 -65.5 t-83.5 -6.5t-82 30.5t-82.5 41.5t-81 31t-83 -6.5t-81 -65.5z" />
<glyph unicode="&#xf2;" horiz-adv-x="1155" d="M100 512q0 126 29.5 222t76.5 152.5t112.5 92.5t128.5 48.5t135 12.5t134.5 -12.5t128 -48t111.5 -92.5t75.5 -153t29.5 -222t-29.5 -222t-75.5 -153t-111.5 -92.5t-128 -48t-134.5 -12.5t-135 12.5t-128.5 48.5t-112.5 92.5t-76.5 152.5t-29.5 222zM248 512 q0 -206 79.5 -299.5t254.5 -93.5q173 0 252 93.5t79 299.5t-79 299.5t-252 93.5q-175 0 -254.5 -93.5t-79.5 -299.5zM362 1391h152l117 -236h-99z" />
<glyph unicode="&#xf3;" horiz-adv-x="1155" d="M100 512q0 126 29.5 222t76.5 152.5t112.5 92.5t128.5 48.5t135 12.5t134.5 -12.5t128 -48t111.5 -92.5t75.5 -153t29.5 -222t-29.5 -222t-75.5 -153t-111.5 -92.5t-128 -48t-134.5 -12.5t-135 12.5t-128.5 48.5t-112.5 92.5t-76.5 152.5t-29.5 222zM248 512 q0 -206 79.5 -299.5t254.5 -93.5q173 0 252 93.5t79 299.5t-79 299.5t-252 93.5q-175 0 -254.5 -93.5t-79.5 -299.5zM530 1155l117 236h152l-170 -236h-99z" />
<glyph unicode="&#xf4;" horiz-adv-x="1155" d="M100 512q0 126 29.5 222t76.5 152.5t112.5 92.5t128.5 48.5t135 12.5t134.5 -12.5t128 -48t111.5 -92.5t75.5 -153t29.5 -222t-29.5 -222t-75.5 -153t-111.5 -92.5t-128 -48t-134.5 -12.5t-135 12.5t-128.5 48.5t-112.5 92.5t-76.5 152.5t-29.5 222zM248 512 q0 -206 79.5 -299.5t254.5 -93.5q173 0 252 93.5t79 299.5t-79 299.5t-252 93.5q-175 0 -254.5 -93.5t-79.5 -299.5zM373 1155l166 246h84l165 -246h-114l-92 143l-95 -143h-114z" />
<glyph unicode="&#xf5;" horiz-adv-x="1155" d="M100 512q0 126 29.5 222t76 153t111.5 92.5t128 48t135 12.5q50 0 96 -6t95 -22.5t90.5 -42t79 -67t63.5 -95t41.5 -129t15.5 -166.5t-15.5 -166.5t-41.5 -129t-63.5 -95t-79 -67t-90.5 -42t-95 -22.5t-96 -6q-72 0 -135 12.5t-128 48t-111.5 92.5t-76 153t-29.5 222z M248 512q0 -206 79 -299.5t253 -93.5q175 0 254 93.5t79 299.5t-79 299.5t-254 93.5q-174 0 -253 -93.5t-79 -299.5zM301 1159v115q38 49 81 65.5t83 6t81.5 -31.5t83 -41.5t81.5 -31t83.5 6t82.5 65.5v-115q-39 -49 -82.5 -65.5t-83.5 -6.5t-81.5 31t-83 41.5t-81.5 31 t-83 -5.5t-81 -65z" />
<glyph unicode="&#xf6;" horiz-adv-x="1155" d="M100 512q0 126 29.5 222t76.5 152.5t112.5 92.5t128.5 48.5t135 12.5t134.5 -12.5t128 -48t111.5 -92.5t75.5 -153t29.5 -222t-29.5 -222t-75.5 -153t-111.5 -92.5t-128 -48t-134.5 -12.5t-135 12.5t-128.5 48.5t-112.5 92.5t-76.5 152.5t-29.5 222zM248 512 q0 -206 79.5 -299.5t254.5 -93.5q173 0 252 93.5t79 299.5t-79 299.5t-252 93.5q-175 0 -254.5 -93.5t-79.5 -299.5zM348 1155v162h162v-162h-162zM651 1155v162h162v-162h-162z" />
<glyph unicode="&#xf7;" horiz-adv-x="1286" d="M227 465h832v123h-832v-123zM561 152v163h164v-163h-164zM561 735v164h164v-164h-164z" />
<glyph unicode="&#xf8;" horiz-adv-x="1175" d="M76 0l127 152q-97 136 -97 360q0 126 29.5 222t76.5 152.5t112.5 92.5t128.5 48.5t135 12.5q180 0 297 -82l53 64h160l-125 -150q94 -132 94 -360q0 -126 -29.5 -222t-75.5 -153t-111.5 -92.5t-128 -48t-134.5 -12.5q-183 0 -297 79l-55 -63h-160zM254 512 q0 -160 45 -246l496 586q-77 53 -207 53q-175 0 -254.5 -93.5t-79.5 -299.5zM381 170q74 -51 207 -51q174 0 253 93.5t79 299.5q0 155 -46 246z" />
<glyph unicode="&#xf9;" horiz-adv-x="1202" d="M168 430v592h147v-600q0 -155 68 -228t213 -73q143 0 212 73t69 228v600h147v-592q0 -213 -112 -329.5t-316 -116.5t-316 116.5t-112 329.5zM383 1391h152l116 -236h-98z" />
<glyph unicode="&#xfa;" horiz-adv-x="1202" d="M168 430v592h147v-600q0 -155 68 -228t213 -73q143 0 212 73t69 228v600h147v-592q0 -213 -112 -329.5t-316 -116.5t-316 116.5t-112 329.5zM541 1155l116 236h150l-170 -236h-96z" />
<glyph unicode="&#xfb;" horiz-adv-x="1202" d="M168 430v592h147v-600q0 -155 68 -228t213 -73q143 0 212 73t69 228v600h147v-592q0 -213 -112 -329.5t-316 -116.5t-316 116.5t-112 329.5zM389 1155l164 246h84l166 -246h-115l-92 143l-92 -143h-115z" />
<glyph unicode="&#xfc;" horiz-adv-x="1202" d="M168 430v592h147v-600q0 -155 68 -228t213 -73q143 0 212 73t69 228v600h147v-592q0 -213 -112 -329.5t-316 -116.5t-316 116.5t-112 329.5zM362 1155v162h164v-162h-164zM666 1155v162h163v-162h-163z" />
<glyph unicode="&#xfd;" horiz-adv-x="1028" d="M63 1022h158l293 -809l293 809h158l-418 -1122q-32 -87 -73.5 -148.5t-85.5 -91.5t-82.5 -42.5t-78.5 -12.5q-53 0 -98 18v135q40 -18 88 -18q39 0 76.5 28.5t63 69t45 81t28.5 69.5l10 28zM449 1155l116 236h152l-170 -236h-98z" />
<glyph unicode="&#xfe;" horiz-adv-x="1136" d="M170 -377v1776h147v-414q121 41 252 41q57 0 109 -9t107 -30t99 -60t79.5 -93.5t55 -137.5t19.5 -186q0 -122 -29 -215.5t-74.5 -149t-109 -90t-125 -47t-131.5 -12.5q-131 0 -252 41v-414h-147zM317 184q117 -51 252 -51q169 0 245.5 89.5t76.5 287.5q0 199 -76.5 289 t-245.5 90q-135 0 -252 -51v-654z" />
<glyph unicode="&#xff;" horiz-adv-x="1028" d="M63 1022h158l293 -809l293 809h158l-418 -1122q-32 -87 -73.5 -148.5t-85.5 -91.5t-82.5 -42.5t-78.5 -12.5q-53 0 -98 18v135q40 -18 88 -18q39 0 76.5 28.5t63 69t45 81t28.5 69.5l10 28zM279 1155v162h161v-162h-161zM582 1155v162h161v-162h-161z" />
<glyph unicode="&#x152;" horiz-adv-x="2029" d="M123 684q0 349 159 524.5t474 175.5q161 0 274 -45v27h864v-139h-716v-471h628v-144h-628v-473h716v-139h-864v27q-116 -43 -274 -43q-315 0 -474 175.5t-159 524.5zM270 684q0 -292 117 -426.5t369 -134.5q170 0 274 59v1004q-109 59 -274 59q-252 0 -369 -135.5 t-117 -425.5z" />
<glyph unicode="&#x153;" horiz-adv-x="1921" d="M102 512q0 126 29.5 222t76 153t111.5 92.5t128 48t135 12.5q278 0 397 -186q111 186 377 186q74 0 137 -18.5t106.5 -45t78.5 -70t55.5 -79.5t36 -89t21.5 -82.5t9.5 -76t3.5 -53.5v-30l-2 -72h-745q13 -153 93 -223t239 -70q219 0 350 76v-152q-148 -71 -365 -71 q-278 0 -393 190q-118 -190 -399 -190q-72 0 -135 12.5t-128 48t-111.5 92.5t-76 153t-29.5 222zM250 512q0 -206 79 -299.5t253 -93.5q175 0 254 93.5t79 299.5t-79 299.5t-254 93.5q-174 0 -253 -93.5t-79 -299.5zM1055 555h600q0 15 -1.5 35t-8.5 55t-19 67t-34.5 67.5 t-53 61.5t-77.5 43t-105 17q-152 0 -221.5 -79t-79.5 -267z" />
<glyph unicode="&#x178;" horiz-adv-x="1224" d="M25 1366h178l405 -596l404 596h178l-508 -739v-627h-147v627zM375 1483v164h164v-164h-164zM678 1483v164h164v-164h-164z" />
<glyph unicode="&#x2c6;" horiz-adv-x="823" d="M207 1155l166 246h84l164 -246h-115l-92 143l-92 -143h-115z" />
<glyph unicode="&#x2dc;" horiz-adv-x="1038" d="M215 1157v117q38 49 81 65t83 5.5t81.5 -31.5t83 -41.5t81.5 -31t83.5 5.5t82.5 65v-113q-39 -49 -82.5 -65.5t-83.5 -6.5t-81.5 30.5t-83 41.5t-81.5 31t-83 -6.5t-81 -65.5z" />
<glyph unicode="&#x2000;" horiz-adv-x="879" />
<glyph unicode="&#x2001;" horiz-adv-x="1759" />
<glyph unicode="&#x2002;" horiz-adv-x="879" />
<glyph unicode="&#x2003;" horiz-adv-x="1759" />
<glyph unicode="&#x2004;" horiz-adv-x="586" />
<glyph unicode="&#x2005;" horiz-adv-x="439" />
<glyph unicode="&#x2006;" horiz-adv-x="293" />
<glyph unicode="&#x2007;" horiz-adv-x="293" />
<glyph unicode="&#x2008;" horiz-adv-x="219" />
<glyph unicode="&#x2009;" horiz-adv-x="351" />
<glyph unicode="&#x200a;" horiz-adv-x="97" />
<glyph unicode="&#x2010;" horiz-adv-x="950" d="M162 539v143h624v-143h-624z" />
<glyph unicode="&#x2011;" horiz-adv-x="950" d="M162 539v143h624v-143h-624z" />
<glyph unicode="&#x2012;" horiz-adv-x="950" d="M162 539v143h624v-143h-624z" />
<glyph unicode="&#x2013;" horiz-adv-x="1146" d="M141 528v127h860v-127h-860z" />
<glyph unicode="&#x2014;" horiz-adv-x="1824" d="M162 528v136h1501v-136h-1501z" />
<glyph unicode="&#x2018;" horiz-adv-x="522" d="M96 1384h168l152 -401h-148z" />
<glyph unicode="&#x2019;" horiz-adv-x="522" d="M96 983l152 401h168l-172 -401h-148z" />
<glyph unicode="&#x201a;" horiz-adv-x="614" d="M147 -229l152 401h166l-170 -401h-148z" />
<glyph unicode="&#x201c;" horiz-adv-x="800" d="M96 1384h168l152 -401h-148zM375 1384h168l151 -401h-147z" />
<glyph unicode="&#x201d;" horiz-adv-x="792" d="M96 983l152 401h168l-172 -401h-148zM375 983l151 401h168l-172 -401h-147z" />
<glyph unicode="&#x201e;" horiz-adv-x="892" d="M147 -229l152 401h166l-170 -401h-148zM426 -229l152 401h167l-172 -401h-147z" />
<glyph unicode="&#x2022;" horiz-adv-x="849" d="M184 684q0 98 70 167t168 69q97 0 166 -69t69 -167t-69 -168t-166 -70q-98 0 -168 70t-70 168z" />
<glyph unicode="&#x2026;" horiz-adv-x="1576" d="M219 0v164h164v-164h-164zM711 0v164h161v-164h-161zM1200 0v164h162v-164h-162z" />
<glyph unicode="&#x202f;" horiz-adv-x="351" />
<glyph unicode="&#x2039;" horiz-adv-x="710" d="M63 522l347 389h198l-364 -389l364 -391h-198z" />
<glyph unicode="&#x203a;" horiz-adv-x="776" d="M137 131l363 391l-363 389h197l348 -389l-348 -391h-197z" />
<glyph unicode="&#x205f;" horiz-adv-x="439" />
<glyph unicode="&#x20ac;" horiz-adv-x="1390" d="M102 467v123h136q-5 78 -5 94t5 94h-136v123h150q44 240 198.5 361.5t415.5 121.5q218 0 416 -79v-142q-196 82 -399 82q-206 0 -324 -84t-158 -260h658v-123h-674q-4 -62 -4 -94q0 -36 4 -94h674v-123h-658q40 -176 158 -260t324 -84q207 0 399 80v-142 q-201 -77 -416 -77q-526 0 -614 483h-150z" />
<glyph unicode="&#x2122;" horiz-adv-x="1550" d="M100 1294v72h557v-72h-241v-610h-74v610h-242zM762 684v682h80l235 -346l236 346h80v-682h-74v561l-242 -348l-241 348v-561h-74z" />
<glyph unicode="&#xe000;" horiz-adv-x="1020" d="M0 0v1020h1020v-1020h-1020z" />
<glyph unicode="&#xfb01;" horiz-adv-x="1202" d="M84 887v137h176v53q0 77 15 138.5t36 100t54.5 66.5t60.5 41t64.5 20t55.5 8t44 1q52 0 100 -10v-133q-40 8 -74 8q-27 0 -42 -0.5t-41 -5t-41 -13t-34.5 -26t-29.5 -42t-17.5 -63.5t-7.5 -88v-55h287v-137h-287v-887h-143v887h-176zM885 1204v162h164v-162h-164zM893 0 h147v1022h-147v-1022z" />
<glyph unicode="&#xfb02;" horiz-adv-x="1220" d="M84 887v137h176v53q0 77 15 138.5t36 100t54.5 66.5t60.5 41t64.5 20t55.5 8t44 1q52 0 100 -10v-133q-40 8 -74 8q-27 0 -42 -0.5t-41 -5t-41 -13t-34.5 -26t-29.5 -42t-17.5 -63.5t-7.5 -88v-55h287v-137h-287v-887h-143v887h-176zM893 0h147v1411h-147v-1411z" />
</font>
</defs>
</svg>
